<svg xmlns="http://www.w3.org/2000/svg" viewBox="0 0 32 32" id="github"><linearGradient id="a" x1="16" x2="16" y1="32" y2="0" gradientUnits="userSpaceOnUse"><stop offset="0" stop-color="#ff2d76"></stop><stop offset="1" stop-color="#fb0000"></stop></linearGradient><path fill="url(#a)" d="M21.806 32h-8.529s.012-2.531 0-4.267c-5.838 1.257-7.467-3.2-7.467-3.2-1.067-2.133-2.133-3.2-2.133-3.2-2.133-1.267 0-1.067 0-1.067 2.133 0 3.2 2.133 3.2 2.133 1.872 3.179 5.203 2.667 6.4 2.133 0-1.067.467-2.679 1.067-3.2-4.659-.525-8.538-3.2-8.538-8.533s1.071-6.4 2.138-7.467C7.728 4.807 6.835 2.864 7.976 0c0 0 2.096 0 4.229 3.2 1.057-1.057 4.267-1.067 5.334-1.067 1.065 0 4.275.01 5.331 1.067C25.005 0 27.106 0 27.106 0c1.14 2.864.249 4.807.032 5.333 1.067 1.067 2.133 2.133 2.133 7.467s-3.873 8.009-8.533 8.533c.601.521 1.067 2.356 1.067 3.2V32h.001z"></path></svg>