<svg xmlns="http://www.w3.org/2000/svg" width="48" height="48" fill="none" id="pinterest"><path fill="#fff" d="M24 47.803c13.255 0 24-10.7 24-23.901C48 10.702 37.255 0 24 0S0 10.701 0 23.902c0 13.2 10.745 23.901 24 23.901Z"></path><path fill="#E60019" d="M24 0C10.746 0 0 10.702 0 23.902c0 10.13 6.321 18.786 15.25 22.268-.218-1.888-.396-4.8.078-6.865.435-1.869 2.805-11.882 2.805-11.882s-.71-1.436-.71-3.541c0-3.325 1.935-5.803 4.345-5.803 2.054 0 3.042 1.534 3.042 3.364 0 2.045-1.304 5.114-1.995 7.967-.573 2.38 1.205 4.328 3.555 4.328 4.267 0 7.546-4.485 7.546-10.938 0-5.725-4.128-9.718-10.034-9.718-6.835 0-10.845 5.095-10.845 10.367 0 2.046.79 4.25 1.778 5.45a.71.71 0 0 1 .158.688c-.178.747-.593 2.38-.672 2.715-.098.432-.355.53-.81.314-3.002-1.396-4.879-5.744-4.879-9.265 0-7.535 5.492-14.46 15.862-14.46 8.316 0 14.795 5.902 14.795 13.81 0 8.243-5.215 14.873-12.444 14.873-2.43 0-4.721-1.26-5.492-2.754l-1.5 5.685c-.534 2.085-1.996 4.682-2.984 6.275a24.194 24.194 0 0 0 7.111 1.063c13.255 0 24-10.702 24-23.902C48 10.701 37.255 0 24 0Z"></path></svg>